<?xml version="1.0" encoding="utf-8"?>
<!-- Generator: Adobe Illustrator 16.0.0, SVG Export Plug-In . SVG Version: 6.00 Build 0)  -->
<svg version="1.2" baseProfile="tiny" id="Capa_1" xmlns="http://www.w3.org/2000/svg" xmlns:xlink="http://www.w3.org/1999/xlink"
	 x="0px" y="0px" width="40px" height="40px" viewBox="180 180 40 40" xml:space="preserve">
<g>
	<g>
		<path fill="white" d="M200.2,180.397c-10.936,0-19.8,8.866-19.8,19.801c0,10.936,8.865,19.801,19.8,19.801
			c10.936,0,19.799-8.865,19.799-19.801C220.002,189.264,211.137,180.397,200.2,180.397z M213.285,210.29l-1.793-1.477
			c-0.073-0.062-0.182-0.051-0.242,0.025c-0.061,0.071-0.05,0.18,0.023,0.24l1.805,1.485c-0.721,0.895-1.529,1.715-2.416,2.438
			l-1.459-1.865c-0.058-0.073-0.167-0.085-0.241-0.029c-0.075,0.059-0.088,0.168-0.028,0.243l1.454,1.863
			c-0.84,0.659-1.745,1.232-2.705,1.723l-1.094-2.067c-0.043-0.085-0.146-0.117-0.231-0.073c-0.083,0.041-0.114,0.148-0.07,0.231
			l1.09,2.064c-1.049,0.505-2.154,0.912-3.311,1.189l-0.442-2.477c-0.017-0.094-0.106-0.153-0.198-0.142
			c-0.095,0.021-0.156,0.108-0.139,0.201l0.443,2.481c-0.874,0.191-1.767,0.324-2.687,0.37v-2.952c0-0.464-0.376-0.842-0.839-0.842
			c-0.465,0-0.842,0.378-0.842,0.842v2.952c-0.767-0.038-1.515-0.143-2.251-0.284l0.371-2.08c0.017-0.093-0.046-0.185-0.139-0.197
			c-0.092-0.016-0.183,0.044-0.199,0.137l-0.371,2.073c-1.13-0.237-2.22-0.581-3.25-1.035l0.957-1.815
			c0.044-0.084,0.012-0.188-0.072-0.233c-0.083-0.041-0.188-0.01-0.232,0.074l-0.965,1.829c-0.966-0.449-1.875-0.995-2.728-1.613
			l1.352-1.73c0.058-0.075,0.045-0.184-0.028-0.243c-0.077-0.059-0.184-0.043-0.243,0.03l-1.354,1.733
			c-0.907-0.689-1.746-1.469-2.493-2.331l1.777-1.461c0.073-0.058,0.084-0.167,0.024-0.243c-0.061-0.07-0.169-0.083-0.243-0.025
			l-1.788,1.476c-0.725-0.871-1.351-1.827-1.887-2.836l2.094-1.1c0.084-0.044,0.117-0.147,0.073-0.231
			c-0.045-0.086-0.147-0.114-0.231-0.074l-2.09,1.097c-0.555-1.103-1.006-2.268-1.306-3.494l2.423-0.452
			c0.093-0.017,0.154-0.109,0.136-0.2c-0.018-0.095-0.106-0.153-0.201-0.136l-2.425,0.453c-0.199-0.896-0.338-1.814-0.385-2.759
			h2.819c0.465,0,0.84-0.375,0.84-0.841c0-0.465-0.376-0.842-0.84-0.842h-2.822c0.047-0.907,0.179-1.792,0.365-2.654
			c0.01,0.001,0.016,0.015,0.027,0.015l2.702,0.508c0.01,0.002,0.022,0.002,0.032,0.002c0.081,0,0.152-0.059,0.169-0.141
			c0.018-0.093-0.044-0.184-0.136-0.2l-2.703-0.508c-0.009-0.003-0.02,0.005-0.029,0.005c0.298-1.264,0.751-2.468,1.321-3.603
			l2.381,1.249c0.025,0.015,0.053,0.023,0.079,0.023c0.062,0,0.122-0.034,0.152-0.091c0.046-0.086,0.014-0.189-0.072-0.232
			l-2.384-1.257c0.546-1.029,1.183-2.001,1.926-2.889l2.04,1.682c0.034,0.025,0.071,0.038,0.111,0.038
			c0.049,0,0.098-0.021,0.132-0.062c0.059-0.075,0.049-0.184-0.024-0.242l-2.027-1.668c0.766-0.876,1.623-1.668,2.555-2.366
			l1.545,1.974c0.033,0.045,0.083,0.067,0.135,0.067c0.037,0,0.074-0.013,0.105-0.037c0.074-0.061,0.088-0.167,0.03-0.24
			l-1.541-1.972c0.87-0.627,1.8-1.176,2.786-1.622l1.096,2.075c0.031,0.062,0.091,0.093,0.152,0.093
			c0.027,0,0.055-0.008,0.081-0.022c0.083-0.042,0.116-0.146,0.071-0.232l-1.082-2.046c1.059-0.456,2.174-0.794,3.336-1.022
			l0.41,2.293c0.014,0.083,0.086,0.142,0.168,0.142c0.01,0,0.021,0,0.031-0.002c0.095-0.019,0.155-0.109,0.138-0.199l-0.41-2.298
			c0.661-0.114,1.33-0.204,2.015-0.239c0,0.015-0.008,0.025-0.008,0.036v3.081c0,0.465,0.378,0.842,0.841,0.842
			c0.464,0,0.839-0.376,0.839-0.842v-3.08c0-0.011-0.005-0.022-0.005-0.035c0.929,0.046,1.833,0.183,2.716,0.375l-0.467,2.617
			c-0.019,0.095,0.044,0.183,0.139,0.201c0.011,0.002,0.02,0.002,0.028,0.002c0.081,0,0.155-0.061,0.17-0.14l0.467-2.615
			c1.172,0.282,2.287,0.7,3.345,1.214l-1.148,2.176c-0.044,0.084-0.014,0.19,0.07,0.234c0.027,0.013,0.054,0.02,0.081,0.02
			c0.062,0,0.121-0.033,0.15-0.093l1.151-2.178c0.965,0.495,1.873,1.076,2.715,1.746l-1.526,1.951
			c-0.058,0.075-0.045,0.181,0.03,0.24c0.034,0.022,0.07,0.036,0.107,0.036c0.051,0,0.101-0.025,0.137-0.067l1.528-1.955
			c0.889,0.735,1.695,1.568,2.412,2.475l-1.871,1.54c-0.071,0.059-0.082,0.168-0.022,0.241c0.033,0.043,0.083,0.063,0.132,0.063
			c0.039,0,0.077-0.012,0.11-0.039l1.859-1.532c0.688,0.906,1.288,1.88,1.78,2.913l-2.06,1.083
			c-0.082,0.041-0.116,0.148-0.071,0.231c0.029,0.059,0.09,0.093,0.151,0.093c0.028,0,0.054-0.008,0.081-0.02l2.053-1.079
			c0.501,1.11,0.866,2.293,1.11,3.518l-2.191,0.411c-0.094,0.018-0.154,0.109-0.137,0.199c0.017,0.082,0.087,0.141,0.167,0.141
			c0.013,0,0.023,0,0.035-0.005l2.193-0.41c0.122,0.684,0.219,1.377,0.255,2.087h-2.844c-0.464,0-0.841,0.377-0.841,0.841
			c0,0.465,0.377,0.842,0.841,0.842h2.844c-0.037,0.756-0.145,1.496-0.28,2.222l-2.168-0.408c-0.093-0.014-0.185,0.048-0.202,0.139
			s0.044,0.183,0.137,0.2l2.166,0.405c-0.257,1.222-0.632,2.393-1.139,3.496l-1.999-1.049c-0.084-0.045-0.189-0.014-0.232,0.071
			c-0.045,0.083-0.011,0.188,0.071,0.23l2.003,1.052C214.579,208.43,213.975,209.395,213.285,210.29z"/>
		<path fill="white" d="M210.993,199.357h-9.425c-0.288-0.466-0.779-0.794-1.368-0.794c-0.192,0-0.369,0.049-0.54,0.112
			l-6.521-6.522c-0.328-0.329-0.86-0.329-1.188,0c-0.33,0.329-0.33,0.86,0,1.187l6.657,6.658c-0.009,0.071-0.04,0.131-0.04,0.2
			c0,0.508,0.239,0.957,0.603,1.258l-4.633,8.224l0.487,0.273l4.633-8.223c0.17,0.061,0.352,0.1,0.543,0.1
			c0.588,0,1.079-0.326,1.368-0.792h9.425c0.463,0,0.84-0.376,0.84-0.842C211.833,199.734,211.456,199.357,210.993,199.357z"/>
	</g>
</g>
</svg>
