<?xml version="1.0" encoding="utf-8"?>
<!-- Generator: Adobe Illustrator 16.0.0, SVG Export Plug-In . SVG Version: 6.00 Build 0)  -->
<svg version="1.2" baseProfile="tiny" id="Capa_1" xmlns="http://www.w3.org/2000/svg" xmlns:xlink="http://www.w3.org/1999/xlink"
	 x="0px" y="0px" width="80px" height="45px" viewBox="160 177.5 80 45" xml:space="preserve">
<g>
	<path d="M211.075,185.861h-32.63v4.07h30.04v21.669h-30.04v5.355h5.458l-3.845,3.704c-0.127,0.121-0.198,0.291-0.198,0.469v0.83
		c0,0.358,0.29,0.649,0.649,0.649h19.665c0.36,0,0.649-0.291,0.649-0.649v-0.83c0-0.178-0.071-0.345-0.198-0.469l-3.846-3.704
		h14.297c0.473,0,0.855-0.383,0.855-0.857v-29.381C211.93,186.245,211.548,185.861,211.075,185.861z M190.341,213.486
		c0.521,0,0.941,0.422,0.941,0.942s-0.421,0.942-0.941,0.942s-0.941-0.422-0.941-0.942S189.82,213.486,190.341,213.486z"/>
	<path d="M174.466,177.72h-12.15c-0.579,0-1.049,0.47-1.049,1.049v42.747c0,0.581,0.47,1.05,1.049,1.05h12.15
		c0.58,0,1.049-0.469,1.049-1.05v-42.747C175.515,178.189,175.046,177.72,174.466,177.72z M167.264,183.049
		c0-0.092,0.074-0.167,0.166-0.167h1.921c0.092,0,0.167,0.074,0.167,0.167v16.553c0,0.091-0.074,0.166-0.167,0.166h-1.921
		c-0.092,0-0.166-0.074-0.166-0.166V183.049z M169.378,208.302c0,0.546-0.441,0.987-0.986,0.987c-0.545,0-0.987-0.441-0.987-0.987
		c0-0.544,0.442-0.986,0.987-0.986C168.936,207.315,169.378,207.758,169.378,208.302z M168.391,216.18
		c-1.284,0-2.324-1.039-2.324-2.324c0-1.283,1.04-2.322,2.324-2.322c1.283,0,2.323,1.039,2.323,2.322
		C170.714,215.141,169.675,216.18,168.391,216.18z"/>
</g>
</svg>
