<?xml version="1.0" encoding="utf-8"?>
<!-- Svg Vector Icons : http://www.onlinewebfonts.com/icon -->
<!DOCTYPE svg PUBLIC "-//W3C//DTD SVG 1.1//EN" "http://www.w3.org/Graphics/SVG/1.1/DTD/svg11.dtd">
<svg version="1.1" xmlns="http://www.w3.org/2000/svg" xmlns:xlink="http://www.w3.org/1999/xlink" x="0px" y="0px" viewBox="0 0 1000 1000" enable-background="new 0 0 1000 1000" xml:space="preserve">
<metadata> Svg Vector Icons : http://www.onlinewebfonts.com/icon </metadata>
<g><path fill="black" d="M934.9,301.2H766.5c-30.3,0-55,28.2-55,63.1v356.6c0,34.7,24.7,63,55,63H935c30.3,0,55-28.2,55-63V364.2C989.9,329.4,965.2,301.2,934.9,301.2L934.9,301.2z M841.8,705.8c-18.3,0-33.1-14.6-33.1-32.4c0-17.9,14.9-32.4,33.1-32.4s33.1,14.6,33.1,32.4C874.9,691.4,860,705.8,841.8,705.8L841.8,705.8z M946.2,510.5c0,8.9-10.3,16.1-23.1,16.1H778.2c-12.7,0-23.1-7.2-23.1-16.1v-38.1h191L946.2,510.5L946.2,510.5z M946.2,453.6h-191v-38.2c0-8.9,10.4-16.1,23.1-16.1h144.9c12.7,0,23.1,7.2,23.1,16.1L946.2,453.6L946.2,453.6z"/><path fill="black" d="M507.6,783.9H146.9c0-6.1-0.2-11.8,0-17.3c0.6-18.4,8-26.1,26.3-26.3c30.2-0.3,60.5-0.1,90.6-0.1c5.7,0,11.4,0,18.3,0v-70h-17.3c-67.9,0-135.7,0.1-203.6,0c-33.3,0-51.1-17.5-51.2-50.9C10,502.2,10,385,10.1,267.9c0-33.1,17.9-51.6,51-51.6c178.2-0.2,356.3-0.2,534.5,0c33.6,0,50.6,18.1,50.6,51.6c0.1,117.2,0.1,234.4,0,351.5c0,33.6-17.2,50.8-51,50.9c-67.4,0.1-134.6,0-202,0h-19.7c0,21.7-0.5,42.1,0.6,62.6c0.1,2.7,8.2,6.9,12.7,7c28.6,0.7,57.3,0.3,85.9,0.3C506.7,740.3,513,747.9,507.6,783.9L507.6,783.9z M600.5,578.8V261.1c-6.3-0.3-11.5-0.8-16.7-0.8c-170.8,0-341.6,0.1-512.3-0.4c-14.4,0-17.6,4.4-17.5,18.1c0.6,94.9,0.3,189.8,0.3,284.8v16h546.2L600.5,578.8L600.5,578.8z M351,625.6c-0.1-12.8-10.8-23.1-23.6-22.8c-12,0.3-22,10.7-22,22.8c0,12.1,10.1,22.5,22,22.9C340.3,648.6,351,638.2,351,625.6L351,625.6z"/></g>
</svg>