<?xml version="1.0" encoding="utf-8"?>
<!-- Generator: Adobe Illustrator 19.2.1, SVG Export Plug-In . SVG Version: 6.00 Build 0)  -->
<svg version="1.1" id="Layer_1" xmlns="http://www.w3.org/2000/svg" xmlns:xlink="http://www.w3.org/1999/xlink" x="0px" y="0px"
	 viewBox="0 0 100 50" style="enable-background:new 0 0 100 50;" xml:space="preserve">
<style type="text/css">
	.st0{fill:#E3E3E3;}
	.st1{fill:#DBDCDD;}
	.st2{fill:#60479D;}
</style>
<g>
	<g>
		<line class="st0" x1="1.7" y1="38.2" x2="98.5" y2="38.2"/>
		<rect x="1.7" y="38" class="st0" width="96.8" height="0.4"/>
	</g>
	<g>
		<polygon class="st0" points="64.2,38.4 49.8,38.4 49.8,22.3 50.2,22.3 50.2,38 63.9,38 63.9,22.3 64.2,22.3 		"/>
		<path class="st0" d="M61.1,36.7h-3.5v-2.9h3.5V36.7z M58,36.3h2.7v-2.1H58V36.3z"/>
		<path class="st0" d="M61.1,33.4h-3.5v-2.9h3.5V33.4z M58,33h2.7v-2.1H58V33z"/>
		<path class="st0" d="M61.1,30.1h-3.5v-2.9h3.5V30.1z M58,29.7h2.7v-2.1H58V29.7z"/>
		<path class="st0" d="M61.1,26.6h-3.5v-2.9h3.5V26.6z M58,26.2h2.7V24H58V26.2z"/>
		<path class="st0" d="M56.1,36.7h-3.5v-2.9h3.5V36.7z M53,36.3h2.7v-2.1H53V36.3z"/>
		<path class="st0" d="M56.1,33.4h-3.5v-2.9h3.5V33.4z M53,33h2.7v-2.1H53V33z"/>
		<path class="st0" d="M56.1,30.1h-3.5v-2.9h3.5V30.1z M53,29.7h2.7v-2.1H53V29.7z"/>
		<path class="st0" d="M56.1,26.6h-3.5v-2.9h3.5V26.6z M53,26.2h2.7V24H53V26.2z"/>
		<g>
			<rect x="50.2" y="22.3" class="st0" width="14" height="0.4"/>
			<rect x="50.2" y="22.3" class="st0" width="14" height="0.4"/>
			<polygon class="st0" points="65.2,22.7 64.2,22.7 64.2,22.3 64.4,22.3 63.1,20.3 51.2,20.3 49.9,22.3 50.2,22.3 50.2,22.7 
				49.1,22.7 51,19.9 63.3,19.9 			"/>
		</g>
	</g>
	<g>
		<g>
			<rect x="37.4" y="13.5" class="st0" width="1.1" height="0.4"/>
			<polygon class="st0" points="43.2,12.1 42.8,12.1 42.8,11.8 37.6,11.8 37.6,12.1 37.2,12.1 37.2,11.4 43.2,11.4 			"/>
			<rect x="42.2" y="13.5" class="st0" width="0.8" height="0.4"/>
			<polygon class="st0" points="45,19.9 44.6,19.9 44.6,12.5 43,12.5 43,12.1 45,12.1 			"/>
			<polygon class="st0" points="36,19.9 35.6,19.9 35.6,12.1 37.6,12.1 37.6,12.5 36,12.5 			"/>
			<rect x="37.6" y="12.1" class="st0" width="5.5" height="0.4"/>
			<rect x="35.8" y="19.7" class="st0" width="9" height="0.4"/>
			<polygon class="st0" points="45.9,38.4 34.3,38.4 34.3,19.7 35.8,19.7 35.8,20.1 34.7,20.1 34.7,38 45.6,38 45.6,20.1 44.8,20.1 
				44.8,19.7 45.9,19.7 			"/>
			<path class="st0" d="M41.5,19.3h-2.3v-2.7h2.3V19.3z M39.5,19h1.6V17h-1.6V19z"/>
			<rect x="39.5" y="13.5" class="st0" width="1.7" height="0.4"/>
			<polygon class="st0" points="41.5,16.4 39.1,16.4 39.1,13.5 39.5,13.5 39.5,16 41.1,16 41.1,13.5 41.5,13.5 			"/>
			<path class="st0" d="M44,19.3h-2.1v-2.7H44V19.3z M42.2,19h1.4V17h-1.4V19z"/>
			<polygon class="st0" points="44,16.4 41.9,16.4 41.9,13.5 42.2,13.5 42.2,16 43.6,16 43.6,13.9 43,13.9 43,13.5 44,13.5 			"/>
			<rect x="42.3" y="13.5" class="st0" width="0.7" height="0.4"/>
			<path class="st0" d="M38.5,19.3h-2.1v-2.7h2.1V19.3z M36.8,19h1.4V17h-1.4V19z"/>
			<polygon class="st0" points="38.5,16.4 36.4,16.4 36.4,13.5 37.6,13.5 37.6,13.9 36.8,13.9 36.8,16 38.2,16 38.2,13.5 38.5,13.5 
							"/>
			<rect x="37.6" y="13.5" class="st0" width="0.9" height="0.4"/>
			<g>
				<g>
					<path class="st0" d="M37.8,37.1h-2.3v-2.5h2.3V37.1z M35.8,36.7h1.6v-1.8h-1.6V36.7z"/>
				</g>
				<g>
					<path class="st0" d="M37.8,34.3h-2.3v-2.5h2.3V34.3z M35.8,33.9h1.6v-1.8h-1.6V33.9z"/>
				</g>
				<g>
					<path class="st0" d="M37.8,31.6h-2.3v-2.5h2.3V31.6z M35.8,31.2h1.6v-1.8h-1.6V31.2z"/>
				</g>
				<g>
					<path class="st0" d="M37.8,28.7h-2.3v-2.5h2.3V28.7z M35.8,28.3h1.6v-1.8h-1.6V28.3z"/>
				</g>
				<g>
					<path class="st0" d="M37.8,26h-2.3v-2.5h2.3V26z M35.8,25.6h1.6v-1.8h-1.6V25.6z"/>
				</g>
				<g>
					<path class="st0" d="M37.8,23.2h-2.3v-2.5h2.3V23.2z M35.8,22.9h1.6v-1.8h-1.6V22.9z"/>
				</g>
			</g>
			<g>
				<g>
					<path class="st0" d="M41.3,37.1h-2.3v-2.5h2.3V37.1z M39.3,36.7h1.6v-1.8h-1.6V36.7z"/>
				</g>
				<g>
					<path class="st0" d="M41.3,34.3h-2.3v-2.5h2.3V34.3z M39.3,33.9h1.6v-1.8h-1.6V33.9z"/>
				</g>
				<g>
					<path class="st0" d="M41.3,31.6h-2.3v-2.5h2.3V31.6z M39.3,31.2h1.6v-1.8h-1.6V31.2z"/>
				</g>
				<g>
					<path class="st0" d="M41.3,28.7h-2.3v-2.5h2.3V28.7z M39.3,28.3h1.6v-1.8h-1.6V28.3z"/>
				</g>
				<g>
					<path class="st0" d="M41.3,26h-2.3v-2.5h2.3V26z M39.3,25.6h1.6v-1.8h-1.6V25.6z"/>
				</g>
				<g>
					<path class="st0" d="M41.3,23.2h-2.3v-2.5h2.3V23.2z M39.3,22.9h1.6v-1.8h-1.6V22.9z"/>
				</g>
			</g>
			<g>
				<g>
					<path class="st0" d="M44.8,37.1h-2.3v-2.5h2.3V37.1z M42.8,36.7h1.6v-1.8h-1.6V36.7z"/>
				</g>
				<g>
					<path class="st0" d="M44.8,34.3h-2.3v-2.5h2.3V34.3z M42.8,33.9h1.6v-1.8h-1.6V33.9z"/>
				</g>
				<g>
					<path class="st0" d="M44.8,31.6h-2.3v-2.5h2.3V31.6z M42.8,31.2h1.6v-1.8h-1.6V31.2z"/>
				</g>
				<g>
					<path class="st0" d="M44.8,28.7h-2.3v-2.5h2.3V28.7z M42.8,28.3h1.6v-1.8h-1.6V28.3z"/>
				</g>
				<g>
					<path class="st0" d="M44.8,26h-2.3v-2.5h2.3V26z M42.8,25.6h1.6v-1.8h-1.6V25.6z"/>
				</g>
				<g>
					<path class="st0" d="M44.8,23.2h-2.3v-2.5h2.3V23.2z M42.8,22.9h1.6v-1.8h-1.6V22.9z"/>
				</g>
			</g>
		</g>
		<rect x="39.9" y="2.8" class="st0" width="0.4" height="8.8"/>
	</g>
	<g>
		<g>
			<path class="st0" d="M80.5,24.8h-1.9L74.8,21l-3.9,3.8h-1.8l5.7-5.6L80.5,24.8z M78.7,24.4h0.8l-4.8-4.7l-4.8,4.7h0.7l4-3.9
				L78.7,24.4z"/>
			<path class="st0" d="M82.3,32.9l-7.5-2.6l-7.5,2.4v-1.4l7.5-2.5l0.1,0l7.4,2.7V32.9z M74.9,29.9l7.1,2.5v-0.6l-7.1-2.5l-7.1,2.3
				v0.6L74.9,29.9z"/>
			<polygon class="st0" points="81.8,38.4 67.7,38.4 67.7,32.3 68.1,32.3 68.1,38 81.4,38 81.4,32.4 81.8,32.4 			"/>
			<g>
				<path class="st0" d="M73.1,29.7l-0.4,0l0-3.3c0,0,0,0,0-0.1c0-0.9,0.9-1.6,2.1-1.6s2.1,0.7,2.1,1.6c0,0,0,0,0,0l0,3.2l-0.4,0
					l0-3.3c-0.1-0.6-0.8-1.1-1.7-1.1c-0.9,0-1.6,0.5-1.7,1.1L73.1,29.7z"/>
			</g>
			<g>
				<rect x="78.5" y="24.5" class="st0" width="0.4" height="6"/>
				<rect x="70.7" y="24.5" class="st0" width="0.4" height="5.8"/>
			</g>
			<g>
				<path class="st0" d="M74,28.6c-0.1,0-0.2,0-0.2-0.1c-0.1-0.1-0.1-0.2-0.1-0.3c0.1-0.2,0.2-0.6,0.1-1c-0.2-0.6,0-1.2,0.4-1.5
					c0.1-0.1,0.2-0.1,0.3-0.2l0,0c0.1,0,0.3,0,0.4,0c0.5,0.1,0.9,0.6,1,1.2c0,0.4,0.3,0.7,0.4,0.9c0.1,0.1,0.1,0.2,0.1,0.3
					c0,0.1-0.1,0.2-0.2,0.2l0,0C75.7,28.2,74.5,28.5,74,28.6C74,28.6,74,28.6,74,28.6z M74.7,26C74.6,26,74.6,26,74.7,26L74.7,26
					c-0.2,0-0.2,0.1-0.3,0.1c-0.3,0.2-0.4,0.6-0.3,1c0.1,0.4,0.1,0.8,0,1.1c0.5-0.1,1.3-0.3,1.8-0.4c-0.2-0.3-0.4-0.6-0.5-1
					c0-0.5-0.4-0.8-0.7-0.8C74.7,26,74.7,26,74.7,26z M76,27.8L76,27.8L76,27.8L76,27.8z"/>
				<g>
					<path class="st0" d="M74.4,28.8c-0.1,0-0.2,0-0.2-0.1c-0.1-0.1-0.2-0.2-0.2-0.3c0-0.1,0-0.1,0-0.2l0-0.1l0.7-0.1l0.1,0.1
						c0,0,0.1,0.1,0.1,0.1c0,0.1,0,0.2-0.1,0.3C74.7,28.7,74.6,28.8,74.4,28.8C74.4,28.8,74.4,28.8,74.4,28.8z"/>
				</g>
			</g>
			<path class="st0" d="M77,38.3h-0.4v-4.4c0-0.7-0.8-1.2-1.7-1.2c-0.9,0-1.7,0.6-1.7,1.2c0,0,0,4.4,0,4.4l-0.4,0c0,0,0-4.3,0-4.4
				c0-0.9,0.9-1.6,2.1-1.6S77,33,77,33.9V38.3z"/>
			<rect x="74.8" y="32.4" class="st0" width="0.4" height="5.6"/>
			<g>
				<path class="st0" d="M80.6,36.3h-2.5v-2.7h2.5V36.3z M78.5,35.9h1.8v-1.9h-1.8V35.9z"/>
			</g>
			<g>
				<path class="st0" d="M71.6,36.3h-2.3v-2.7h2.3V36.3z M69.7,35.9h1.6v-1.9h-1.6V35.9z"/>
			</g>
		</g>
		<rect x="74.6" y="16" class="st0" width="0.4" height="3.5"/>
		<rect x="73.6" y="17.4" class="st0" width="2.5" height="0.4"/>
	</g>
	<g>
		<rect x="20.4" y="13.5" class="st0" width="5.5" height="0.4"/>
		<polygon class="st0" points="18.5,14.9 18.1,14.9 18.1,13.5 20.4,13.5 20.4,13.9 18.5,13.9 		"/>
		<polygon class="st0" points="27.8,14.9 27.5,14.9 27.5,13.9 25.9,13.9 25.9,13.5 27.8,13.5 		"/>
		<polygon class="st0" points="29.2,38.4 16.6,38.4 16.6,14.9 18.5,14.9 18.5,15.3 16.9,15.3 16.9,38 28.8,38 28.8,15.3 27.5,15.3 
			27.5,14.9 29.2,14.9 		"/>
		<rect x="18.5" y="14.9" class="st0" width="9.1" height="0.4"/>
		<g>
			<g>
				<rect x="16.7" y="35.3" class="st0" width="12.5" height="0.4"/>
			</g>
			<g>
				<rect x="16.7" y="32.4" class="st0" width="12.5" height="0.4"/>
			</g>
			<g>
				<rect x="16.7" y="29.5" class="st0" width="12.5" height="0.4"/>
			</g>
			<g>
				<rect x="16.7" y="26.6" class="st0" width="12.5" height="0.4"/>
			</g>
			<g>
				<rect x="16.7" y="23.6" class="st0" width="12.5" height="0.4"/>
			</g>
			<g>
				<rect x="16.7" y="20.7" class="st0" width="12.5" height="0.4"/>
			</g>
			<g>
				<rect x="16.7" y="17.8" class="st0" width="12.5" height="0.4"/>
			</g>
		</g>
		<g>
			<g>
				<rect x="28.8" y="15.1" class="st0" width="0.4" height="23.2"/>
			</g>
			<g>
				<rect x="25.7" y="15.1" class="st0" width="0.4" height="23.2"/>
			</g>
			<g>
				<rect x="22.6" y="15.1" class="st0" width="0.4" height="23.2"/>
			</g>
			<g>
				<rect x="19.5" y="15.1" class="st0" width="0.4" height="23.2"/>
			</g>
		</g>
	</g>
	<g>
		<rect x="89.5" y="35.9" class="st0" width="0.4" height="2.3"/>
		<path class="st0" d="M93.2,36.3h-7c-0.1,0-0.1,0-0.2-0.1c0,0,0-0.1,0-0.2l3.5-11.1c0-0.1,0.1-0.1,0.2-0.1c0.1,0,0.2,0.1,0.2,0.1
			L93.4,36c0,0.1,0,0.1,0,0.2C93.4,36.3,93.3,36.3,93.2,36.3z M86.5,35.9H93l-3.2-10.3L86.5,35.9z"/>
	</g>
	<g>
		<rect x="10.5" y="32" class="st0" width="0.4" height="6"/>
		<path class="st0" d="M10.6,35.1c-1.7,0-3.1-1.4-3.1-3.1c0-1.7,1.4-3.1,3.1-3.1s3.1,1.4,3.1,3.1C13.7,33.7,12.3,35.1,10.6,35.1z
			 M10.6,29.2c-1.5,0-2.7,1.2-2.7,2.7s1.2,2.7,2.7,2.7s2.7-1.2,2.7-2.7S12.1,29.2,10.6,29.2z"/>
		<rect x="9.9" y="32.7" transform="matrix(0.6044 -0.7967 0.7967 0.6044 -22.752 21.2768)" class="st0" width="0.4" height="1.8"/>
	</g>
	<path class="st0" d="M69.4,17.5h-6.7v-0.1c-0.9-0.1-1.6-0.9-1.6-1.8s0.7-1.7,1.6-1.8v-0.1h0.1c0.2-1.2,1.2-2.2,2.5-2.2
		c0.3,0,0.6,0,0.8,0.1c0.3,0.1,0.6,0.3,0.9,0.6c0.2-0.1,0.4-0.1,0.6-0.1c0.9,0,1.7,0.7,1.8,1.5h0l0,0.1c0.9,0.1,1.6,0.9,1.6,1.8
		C71,16.6,70.3,17.4,69.4,17.5L69.4,17.5z M63.2,17.1H69v-0.1h0.2c0.8,0,1.4-0.6,1.4-1.4c0-0.8-0.6-1.4-1.4-1.4H69l0-0.3
		c0-0.8-0.6-1.4-1.4-1.4c-0.2,0-0.4,0-0.5,0.1L67,12.8l-0.1-0.1c-0.2-0.2-0.5-0.4-0.8-0.5c-0.2-0.1-0.5-0.1-0.7-0.1
		c-1.1,0-2,0.9-2.1,2l0,0.2h-0.1v0.1H63c-0.8,0-1.4,0.6-1.4,1.4c0,0.8,0.6,1.4,1.4,1.4L63.2,17.1L63.2,17.1z"/>
</g>
<g>
	</g>
</svg>
