<?xml version="1.0" encoding="utf-8"?>
<!-- Generator: Adobe Illustrator 16.0.0, SVG Export Plug-In . SVG Version: 6.00 Build 0)  -->
<svg version="1.2" baseProfile="tiny" id="Capa_1" xmlns="http://www.w3.org/2000/svg" xmlns:xlink="http://www.w3.org/1999/xlink"
	 x="0px" y="0px" width="40px" height="40px" viewBox="286.001 286 40 40" xml:space="preserve">
<g>
	<path fill="white" d="M299.188,312.003c0-3.737,4.847-4.335,4.847-6.395c0-0.904-0.7-1.445-1.576-1.445c-1.211,0-1.869,1.226-1.869,1.226
		l-1.401-0.934c0,0,0.948-2.073,3.431-2.073c1.825,0,3.372,1.109,3.372,3.065c0,3.33-4.641,3.898-4.686,5.855h4.846v1.62h-6.875
		C299.232,312.588,299.188,312.295,299.188,312.003z M307.207,309.099l4.467-6.541h2.234v6.131h1.343v1.563h-1.343v2.671h-1.855
		v-2.671h-4.846V309.099L307.207,309.099z M312.052,308.689v-3.21c0-0.512,0.075-1.081,0.075-1.081h-0.03
		c0,0-0.233,0.554-0.511,0.948l-2.395,3.314v0.028H312.052L312.052,308.689z M321.196,308.14l-0.36,1.292
		c-2.051,7.345-9.532,11.979-16.933,10.143c-7.108-1.765-11.526-8.652-10.464-15.67l2.142,0.598
		c0.497,0.139,0.957-0.313,0.828-0.812l-2.329-9.07c-0.128-0.499-0.749-0.672-1.117-0.312l-6.691,6.553
		c-0.369,0.36-0.208,0.984,0.289,1.123l2.332,0.651c-1.74,9.492,4.116,18.946,13.672,21.436c9.923,2.584,20.045-3.56,22.802-13.436
		l0.346-1.234c0.099-0.357-0.109-0.726-0.466-0.825l-3.225-0.9C321.665,307.575,321.296,307.782,321.196,308.14z M325.007,302.488
		l-3.382,0.439c-0.366,0.048-0.625,0.384-0.578,0.75l0.133,1.025c0.048,0.367,0.385,0.626,0.751,0.578l3.383-0.439
		c0.365-0.048,0.625-0.384,0.577-0.751l-0.134-1.026C325.71,302.699,325.374,302.44,325.007,302.488z M322.404,296.097l-2.972,1.674
		c-0.322,0.182-0.436,0.59-0.255,0.913l0.508,0.9c0.182,0.323,0.59,0.437,0.912,0.255l2.971-1.674
		c0.322-0.182,0.437-0.59,0.255-0.912l-0.508-0.902C323.134,296.03,322.725,295.916,322.404,296.097z M317.595,291.148l-2.128,2.665
		c-0.23,0.289-0.184,0.71,0.106,0.941l0.809,0.646c0.288,0.23,0.71,0.183,0.941-0.106l2.127-2.666
		c0.231-0.289,0.183-0.71-0.105-0.941l-0.81-0.646C318.247,290.811,317.827,290.858,317.595,291.148z M311.284,288.359l-0.975,3.268
		c-0.105,0.354,0.096,0.727,0.451,0.833l0.99,0.295c0.354,0.106,0.727-0.096,0.832-0.45l0.976-3.268
		c0.105-0.354-0.097-0.727-0.451-0.833l-0.99-0.295C311.762,287.802,311.389,288.005,311.284,288.359z M304.386,288.138l0.321,3.395
		c0.035,0.369,0.361,0.638,0.729,0.604l1.031-0.098c0.367-0.034,0.638-0.361,0.603-0.729l-0.32-3.396
		c-0.035-0.369-0.362-0.639-0.73-0.604l-1.03,0.097C304.622,287.443,304.352,287.769,304.386,288.138z M297.908,290.517l1.57,3.028
		c0.17,0.328,0.575,0.457,0.902,0.286l0.919-0.476c0.328-0.17,0.457-0.574,0.286-0.903l-1.57-3.028
		c-0.17-0.328-0.574-0.456-0.903-0.286l-0.918,0.476C297.867,289.784,297.739,290.188,297.908,290.517z"/>
</g>
</svg>
