<?xml version="1.0" encoding="iso-8859-1"?>
<!-- Generator: Adobe Illustrator 19.0.0, SVG Export Plug-In . SVG Version: 6.00 Build 0)  -->
<svg version="1.1" id="Capa_1" xmlns="http://www.w3.org/2000/svg" xmlns:xlink="http://www.w3.org/1999/xlink" x="0px" y="0px"
	 viewBox="0 0 512 512" style="enable-background:new 0 0 512 512;" xml:space="preserve">
<g>
	<g>
		<path style="fill:#FFEEBB;" d="M472,128H40c-22.055,0-40,17.945-40,40v176c0,22.055,17.945,40,40,40h432c22.055,0,40-17.945,40-40
			V168C512,145.945,494.055,128,472,128z"/>
	</g>
	<g>
		<path style="fill:#73D14F;" d="M92.102,244C76.016,244,64,235.555,64,228s12.016-16,28.102-16s28.102,8.445,28.102,16
			c0,6.625,5.375,12,12,12s12-5.375,12-12c0-19.244-16.864-34.874-40.102-38.937V176c0-6.625-5.375-12-12-12s-12,5.375-12,12v13.063
			C56.864,193.126,40,208.756,40,228c0,22.43,22.883,40,52.102,40c16.086,0,28.102,8.445,28.102,16s-12.016,16-28.102,16
			S64,291.555,64,284c0-6.625-5.375-12-12-12s-12,5.375-12,12c0,19.244,16.864,34.874,40.102,38.937V336c0,6.625,5.375,12,12,12
			s12-5.375,12-12v-13.063c23.238-4.063,40.102-19.693,40.102-38.937C144.203,261.57,121.32,244,92.102,244z"/>
	</g>
	<g>
		<g>
			<path style="fill:#73D14F;" d="M280,192h-96c-4.422,0-8-3.578-8-8s3.578-8,8-8h96c4.422,0,8,3.578,8,8S284.422,192,280,192z"/>
		</g>
	</g>
	<g>
		<g>
			<path style="fill:#73D14F;" d="M392,224H184c-4.422,0-8-3.578-8-8s3.578-8,8-8h208c4.422,0,8,3.578,8,8S396.422,224,392,224z"/>
		</g>
	</g>
	<g>
		<g>
			<path style="fill:#5C546A;" d="M216,272h-32c-4.422,0-8-3.578-8-8s3.578-8,8-8h32c4.422,0,8,3.578,8,8S220.422,272,216,272z"/>
		</g>
	</g>
	<g>
		<g>
			<path style="fill:#5C546A;" d="M216,304h-32c-4.422,0-8-3.578-8-8s3.578-8,8-8h32c4.422,0,8,3.578,8,8S220.422,304,216,304z"/>
		</g>
	</g>
	<g>
		<g>
			<path style="fill:#5C546A;" d="M216,336h-32c-4.422,0-8-3.578-8-8s3.578-8,8-8h32c4.422,0,8,3.578,8,8S220.422,336,216,336z"/>
		</g>
	</g>
	<g>
		<g>
			<path style="fill:#8A8895;" d="M344,272h-96c-4.422,0-8-3.578-8-8s3.578-8,8-8h96c4.422,0,8,3.578,8,8S348.422,272,344,272z"/>
		</g>
	</g>
	<g>
		<g>
			<path style="fill:#8A8895;" d="M360,304H248c-4.422,0-8-3.578-8-8s3.578-8,8-8h112c4.422,0,8,3.578,8,8S364.422,304,360,304z"/>
		</g>
	</g>
	<g>
		<g>
			<path style="fill:#8A8895;" d="M336,336h-88c-4.422,0-8-3.578-8-8s3.578-8,8-8h88c4.422,0,8,3.578,8,8S340.422,336,336,336z"/>
		</g>
	</g>
	<g>
		<g>
			<path style="fill:#5C546A;" d="M400,344c-2.102,0-4.141-0.828-5.656-2.344l-16-16c-3.125-3.125-3.125-8.188,0-11.313
				s8.188-3.125,11.313,0l7.422,7.422l5.742-14.359c2.242-5.586,7.344-9.445,13.328-10.063c6.016-0.555,11.766,2.102,15.094,7.102
				l33.766-60.328c2.148-3.867,7.023-5.273,10.875-3.109c3.867,2.148,5.258,7.016,3.109,10.875l-33.516,60.32
				c-2.75,4.969-7.781,8.07-13.461,8.297c-5.555,0.273-10.938-2.453-14.086-7.18l-10.5,25.648c-1,2.5-3.188,4.328-5.82,4.867
				C401.07,343.945,400.531,344,400,344z"/>
		</g>
	</g>
</g>
<g>
</g>
<g>
</g>
<g>
</g>
<g>
</g>
<g>
</g>
<g>
</g>
<g>
</g>
<g>
</g>
<g>
</g>
<g>
</g>
<g>
</g>
<g>
</g>
<g>
</g>
<g>
</g>
<g>
</g>
</svg>
