<?xml version="1.0" encoding="utf-8"?>
<!-- Generator: Adobe Illustrator 16.0.0, SVG Export Plug-In . SVG Version: 6.00 Build 0)  -->
<svg version="1.2" baseProfile="tiny" id="Capa_1" xmlns="http://www.w3.org/2000/svg" xmlns:xlink="http://www.w3.org/1999/xlink"
	 x="0px" y="0px" width="80px" height="45px" viewBox="252.969 270.469 80 45" xml:space="preserve">
<g>
	<g>
		<g>
			<path fill="white" d="M289.502,289.721l1.081-1.081c0.104-0.104,0.143-0.256,0.102-0.396c-0.044-0.139-0.162-0.245-0.302-0.275l-4.664-0.941
				c-0.131-0.027-0.266,0.015-0.361,0.109c-0.093,0.095-0.137,0.231-0.109,0.361l0.941,4.661c0.031,0.143,0.136,0.262,0.274,0.304
				c0.141,0.043,0.296,0.003,0.399-0.102l1.079-1.078l2.527,2.524c0.154,0.156,0.408,0.156,0.563,0.001l0.998-0.997
				c0.075-0.074,0.117-0.176,0.117-0.282s-0.042-0.208-0.117-0.283L289.502,289.721z"/>
			<path fill="white" d="M301.426,309.628l-2.521-7.292c-0.249-0.716-0.925-1.198-1.684-1.198h-0.384c1.395-0.441,2.414-1.731,2.414-3.27v-23.454
				c0-1.9-1.547-3.446-3.446-3.446h-36.975c-1.899,0-3.445,1.545-3.445,3.446v23.454c0,1.537,1.02,2.828,2.413,3.27h-0.382
				c-0.759,0-1.434,0.481-1.683,1.198l-2.521,7.292c-0.467,1.346-0.252,2.833,0.574,3.992c0.826,1.159,2.161,1.849,3.586,1.849
				h39.895c1.425,0,2.76-0.689,3.586-1.849S301.891,310.974,301.426,309.628z M277.32,271.764c0.479,0,0.87,0.391,0.87,0.87
				c0,0.48-0.391,0.87-0.87,0.87c-0.48,0-0.871-0.39-0.871-0.87C276.448,272.155,276.839,271.764,277.32,271.764z M258.831,274.3
				l37.09,0.115v23.567l-37.206-0.113L258.831,274.3z M284.024,312.096c-0.091,0.135-0.244,0.216-0.406,0.216h-12.596
				c-0.163,0-0.316-0.081-0.407-0.216c-0.089-0.135-0.107-0.306-0.047-0.456l1.215-3.006c0.248-0.609,0.839-1.008,1.496-1.008h8.082
				c0.657,0,1.249,0.398,1.496,1.008l1.215,3.006C284.13,311.79,284.113,311.961,284.024,312.096z"/>
		</g>
	</g>
</g>
</svg>
