<?xml version="1.0" encoding="iso-8859-1"?>
<!-- Generator: Adobe Illustrator 18.0.0, SVG Export Plug-In . SVG Version: 6.00 Build 0)  -->
<!DOCTYPE svg PUBLIC "-//W3C//DTD SVG 1.1//EN" "http://www.w3.org/Graphics/SVG/1.1/DTD/svg11.dtd">
<svg version="1.1" id="Capa_1" xmlns="http://www.w3.org/2000/svg" xmlns:xlink="http://www.w3.org/1999/xlink" x="0px" y="0px"
	 viewBox="0 0 415.02 415.02" style="enable-background:new 0 0 415.02 415.02;" xml:space="preserve">
<polygon style="fill:#E77200;" points="329.02,64.05 415.02,207.51 329.02,350.97 329.02,298.65 239.41,298.65 296.43,148.37 
	101.02,148.37 101.02,116.38 329.02,116.38 "/>
<polygon style="fill:#C65C05;" points="122.773,148.37 78.773,148.37 21.753,298.65 261.163,298.65 318.183,148.37 "/>
<polygon style="fill:#E2D9C3;" points="296.43,148.37 239.41,298.65 193.68,223.51 "/>
<polygon style="fill:#FCF4DE;" points="296.43,148.37 193.68,223.51 130.75,269.52 102.75,223.51 57.02,148.37 101.02,148.37 "/>
<polygon style="fill:#C6BDA7;" points="193.68,223.51 239.41,298.65 0,298.65 102.74,223.51 102.75,223.51 130.75,269.52 "/>
<polygon style="fill:#E2D9C3;" points="57.02,148.37 102.75,223.51 102.74,223.51 0,298.65 "/>
<g>
</g>
<g>
</g>
<g>
</g>
<g>
</g>
<g>
</g>
<g>
</g>
<g>
</g>
<g>
</g>
<g>
</g>
<g>
</g>
<g>
</g>
<g>
</g>
<g>
</g>
<g>
</g>
<g>
</g>
</svg>
