<?xml version="1.0" encoding="utf-8"?>
<!-- Generator: Adobe Illustrator 16.0.0, SVG Export Plug-In . SVG Version: 6.00 Build 0)  -->
<svg version="1.2" baseProfile="tiny" id="Capa_1" xmlns="http://www.w3.org/2000/svg" xmlns:xlink="http://www.w3.org/1999/xlink"
	 x="0px" y="0px" width="40px" height="40px" viewBox="236 236 40 40" xml:space="preserve">
<g>
	<path fill="white" d="M256.026,236.031c-11.043,0-19.995,8.952-19.995,19.995c0,11.044,8.952,19.995,19.995,19.995
		c11.044,0,19.995-8.951,19.995-19.995C276.021,244.983,267.07,236.031,256.026,236.031z M256.026,272.897
		c-9.317,0-16.871-7.553-16.871-16.87s7.554-16.871,16.871-16.871s16.87,7.554,16.87,16.871S265.344,272.897,256.026,272.897z"/>
	<path fill="white" d="M262.251,254.777h-1.226l0.003-3.61c0-2.148-2.229-3.888-4.988-3.888c-2.755,0-4.99,1.74-4.99,3.888l-0.023,3.61h-1.252
		c-0.689,0-1.22,0.557-1.22,1.093l-0.027,7.811c0,0.536,0.584,1.094,1.273,1.094h12.479c0.687,0,1.218-0.558,1.218-1.094
		l0.026-7.811C263.524,255.334,262.937,254.777,262.251,254.777z M253.527,251.028c0-1.072,1.14-1.805,2.514-1.805
		c1.374,0,2.485,0.733,2.485,1.805l-0.017,3.75h-4.982V251.028z"/>
</g>
</svg>
