<?xml version="1.0" encoding="utf-8"?>
<!-- Generator: Adobe Illustrator 16.0.0, SVG Export Plug-In . SVG Version: 6.00 Build 0)  -->
<svg version="1.2" baseProfile="tiny" id="Capa_1" xmlns="http://www.w3.org/2000/svg" xmlns:xlink="http://www.w3.org/1999/xlink"
	 x="0px" y="0px" width="40px" height="40px" viewBox="236 236 40 40" xml:space="preserve">
<g>
	<g>
		<path fill="white" d="M256.059,236.119c-11.014,0-19.941,8.927-19.941,19.941c0,11.013,8.927,19.94,19.941,19.94
			c11.013,0,19.94-8.928,19.94-19.94C276,245.046,267.072,236.119,256.059,236.119z M256.059,272.885
			c-9.293,0-16.825-7.533-16.825-16.825c0-9.293,7.532-16.825,16.825-16.825c9.292,0,16.824,7.532,16.824,16.825
			C272.884,265.352,265.351,272.885,256.059,272.885z"/>
		<path fill="white" d="M262.665,266.03h-13.212v-2.022c1.779-0.842,3.377-2.653,3.377-4.822c0-0.545,0-1.027-0.121-1.602h-2.987v-2.563h2.566
			c-0.122-0.815-0.272-1.811-0.272-2.806c0-3.711,2.624-6.125,6.367-6.125c1.598,0,2.776,0.363,3.408,0.723l-0.664,2.807
			c-0.574-0.302-1.417-0.573-2.595-0.573c-2.262,0-3.046,1.509-3.046,3.288c0,0.997,0.12,1.841,0.331,2.686h4.221v2.563h-3.89
			c0.029,0.906,0.029,1.811-0.208,2.686c-0.303,1.027-0.906,1.898-1.753,2.654v0.06h8.479L262.665,266.03L262.665,266.03z"/>
	</g>
</g>
</svg>
