<?xml version="1.0" encoding="utf-8"?>
<!-- Generator: Adobe Illustrator 19.2.1, SVG Export Plug-In . SVG Version: 6.00 Build 0)  -->
<svg version="1.1" id="Layer_1" xmlns="http://www.w3.org/2000/svg" xmlns:xlink="http://www.w3.org/1999/xlink" x="0px" y="0px"
	 viewBox="0 0 100 50" style="enable-background:new 0 0 100 50;" xml:space="preserve">
<style type="text/css">
	.st0{fill:#E3E3E3;}
	.st1{fill:#DBDCDD;}
	.st2{fill:#85CA2B;}
</style>

<g>
	<path class="st1" d="M50,44.5c-6,0-10.9,0.3-10.9,0.7S44,45.9,50,45.9c6,0,10.9-0.3,10.9-0.7C60.9,44.8,56,44.5,50,44.5"/>
	<path class="st2" d="M50,21.1c-4.2,0-7.6,3.6-7.6,7.6c0,5.6,7.4,13.1,7.6,13.1c0.2,0,7.6-7.5,7.6-13.1C57.6,24.5,54.2,21.1,50,21.1
		z M50,33c-2.3,0-4.2-1.9-4.2-4.2c0-2.3,1.9-4.2,4.2-4.2c2.3,0,4.2,1.9,4.2,4.2C54.2,31.1,52.3,33,50,33z"/>
	
</g>
</svg>
